<svg width="15" height="18" viewBox="0 0 15 18" fill="none" xmlns="http://www.w3.org/2000/svg">
<path d="M14.7779 13.3061L11.6571 10.1249H12.8536C13.2056 10.1249 13.5169 9.94914 13.6654 9.66579C13.8138 9.38315 13.765 9.05902 13.5372 8.82031L10.4852 5.62507H11.6138C11.9692 5.62507 12.2896 5.43699 12.4286 5.14661C12.5661 4.8608 12.5013 4.52823 12.263 4.30008L7.95548 0.170063C7.71993 -0.0566875 7.28046 -0.0566875 7.04452 0.170063L2.73661 4.30008C2.49832 4.52823 2.43387 4.8608 2.57098 5.14661C2.71005 5.43699 3.03076 5.62507 3.38623 5.62507H4.51477L1.46236 8.82102C1.2354 9.05937 1.18657 9.38315 1.33462 9.66614C1.48306 9.94914 1.79401 10.1249 2.14636 10.1249H3.34287L0.222097 13.3061C-0.0122836 13.5448 -0.0654098 13.8717 0.0830312 14.159C0.229519 14.442 0.551792 14.6248 0.903753 14.6248H6.24997V15.4843L5.06674 17.1858C4.85892 17.5599 5.16127 18 5.62574 18H9.37426C9.83873 18 10.1411 17.5599 9.93326 17.1858L8.75003 15.4843V14.6248H14.0962C14.4482 14.6248 14.7705 14.442 14.917 14.159C15.0654 13.8717 15.0123 13.5448 14.7779 13.3061Z" fill="#95C74D"/>
</svg>
