<svg width="19" height="19" viewBox="0 0 19 19" fill="none" xmlns="http://www.w3.org/2000/svg">
<path d="M18.075 1.59325L14.4187 0.749501C14.0215 0.658095 13.6136 0.865517 13.4519 1.23817L11.7644 5.17567C11.6168 5.5202 11.7152 5.9245 12.007 6.16005L14.1375 7.9038C12.8719 10.6003 10.6605 12.8433 7.90779 14.1335L6.16404 12.003C5.92498 11.7112 5.52419 11.6128 5.17966 11.7604L1.24216 13.4479C0.865991 13.6132 0.658569 14.021 0.749976 14.4183L1.59373 18.0745C1.68162 18.4542 2.01912 18.7284 2.41638 18.7284C11.4199 18.7284 18.7289 11.4335 18.7289 2.41591C18.7289 2.02216 18.4582 1.68114 18.075 1.59325Z" fill="black"/>
</svg>
