<svg width="22" height="18" viewBox="0 0 22 18" fill="none" xmlns="http://www.w3.org/2000/svg">
<path d="M21.45 7.3125H19.25V5.0625C19.25 4.75312 19.0025 4.5 18.7 4.5H17.6C17.2975 4.5 17.05 4.75312 17.05 5.0625V7.3125H14.85C14.5475 7.3125 14.3 7.56562 14.3 7.875V9C14.3 9.30937 14.5475 9.5625 14.85 9.5625H17.05V11.8125C17.05 12.1219 17.2975 12.375 17.6 12.375H18.7C19.0025 12.375 19.25 12.1219 19.25 11.8125V9.5625H21.45C21.7525 9.5625 22 9.30937 22 9V7.875C22 7.56562 21.7525 7.3125 21.45 7.3125ZM7.7 9C10.1303 9 12.1 6.98555 12.1 4.5C12.1 2.01445 10.1303 0 7.7 0C5.26969 0 3.3 2.01445 3.3 4.5C3.3 6.98555 5.26969 9 7.7 9ZM10.78 10.125H10.2059C9.44281 10.4836 8.59375 10.6875 7.7 10.6875C6.80625 10.6875 5.96063 10.4836 5.19406 10.125H4.62C2.06938 10.125 0 12.2414 0 14.85V16.3125C0 17.2441 0.739062 18 1.65 18H13.75C14.6609 18 15.4 17.2441 15.4 16.3125V14.85C15.4 12.2414 13.3306 10.125 10.78 10.125Z" fill="black" fill-opacity="0.6"/>
</svg>
