<svg width="23" height="16" viewBox="0 0 23 16" fill="none" xmlns="http://www.w3.org/2000/svg">
<path d="M22.6352 14.3164L20.6709 12.9881C21.2209 12.9443 21.7138 12.5599 21.7138 12.0161V3.98391C21.7138 3.18695 20.6745 2.72127 19.9137 3.17757L15.9994 5.54034V9.82834L14.8565 9.05637V3.49323C14.8565 2.66814 14.0922 1.99931 13.1493 1.99931H4.42406L1.62399 0.105342C1.37398 -0.0634276 1.01683 -0.0259233 0.820398 0.192852L0.12038 0.980442C-0.0724822 1.19922 -0.0296239 1.51175 0.220383 1.68052L1.52399 2.56187L14.8565 11.5817L21.2316 15.8947C21.4816 16.0634 21.8388 16.0259 22.0352 15.8071L22.7352 15.0164C22.9317 14.8008 22.8853 14.4851 22.6352 14.3164ZM1.14183 12.5068C1.14183 13.3319 1.90614 14.0007 2.84902 14.0007H13.1493C13.5493 14.0007 13.9136 13.8757 14.2065 13.6725L1.14183 4.83401V12.5068Z" fill="black"/>
</svg>
