<svg width="35" height="35" viewBox="0 0 35 35" fill="none" xmlns="http://www.w3.org/2000/svg">
<path d="M17.5 0C7.83398 0 0 7.27344 0 16.25C0 20.125 1.46289 23.6719 3.89648 26.4609C3.04199 30.3984 0.18457 33.9062 0.150391 33.9453C0 34.125 -0.0410156 34.3906 0.0478516 34.625C0.136719 34.8594 0.328125 35 0.546875 35C5.0791 35 8.47656 32.5156 10.1582 30.9844C12.3936 31.9453 14.875 32.5 17.5 32.5C27.166 32.5 35 25.2266 35 16.25C35 7.27344 27.166 0 17.5 0ZM8.75 18.75C7.54004 18.75 6.5625 17.6328 6.5625 16.25C6.5625 14.8672 7.54004 13.75 8.75 13.75C9.95996 13.75 10.9375 14.8672 10.9375 16.25C10.9375 17.6328 9.95996 18.75 8.75 18.75ZM17.5 18.75C16.29 18.75 15.3125 17.6328 15.3125 16.25C15.3125 14.8672 16.29 13.75 17.5 13.75C18.71 13.75 19.6875 14.8672 19.6875 16.25C19.6875 17.6328 18.71 18.75 17.5 18.75ZM26.25 18.75C25.04 18.75 24.0625 17.6328 24.0625 16.25C24.0625 14.8672 25.04 13.75 26.25 13.75C27.46 13.75 28.4375 14.8672 28.4375 16.25C28.4375 17.6328 27.46 18.75 26.25 18.75Z" fill="white"/>
</svg>
