<svg width="22" height="22" viewBox="0 0 22 22" fill="none" xmlns="http://www.w3.org/2000/svg">
<path d="M19.5312 21.875H2.34375C1.04932 21.875 0 20.8257 0 19.5312V2.34375C0 1.04932 1.04932 0 2.34375 0H19.5312C20.8257 0 21.875 1.04932 21.875 2.34375V19.5312C21.875 20.8257 20.8257 21.875 19.5312 21.875ZM9.53682 17.087L18.5212 8.10259C18.8263 7.79751 18.8263 7.30283 18.5212 6.99775L17.4164 5.89292C17.1113 5.58784 16.6166 5.58779 16.3115 5.89292L8.98438 13.22L5.56353 9.79912C5.25845 9.49404 4.76377 9.49404 4.45864 9.79912L3.35381 10.904C3.04873 11.209 3.04873 11.7037 3.35381 12.0088L8.43193 17.0869C8.73706 17.3921 9.23169 17.3921 9.53682 17.087V17.087Z" fill="black"/>
</svg>
