<svg width="18" height="18" viewBox="0 0 18 18" fill="none" xmlns="http://www.w3.org/2000/svg">
<path d="M12.2524 8.80078L17.1387 3.91455C17.7383 3.31494 17.7383 2.34277 17.1387 1.74268L16.0527 0.656738C15.4531 0.0571289 14.481 0.0571289 13.8809 0.656738L8.99463 5.54297L4.1084 0.656738C3.50879 0.0571289 2.53662 0.0571289 1.93652 0.656738L0.850586 1.74268C0.250977 2.34228 0.250977 3.31445 0.850586 3.91455L5.73682 8.80078L0.850586 13.687C0.250977 14.2866 0.250977 15.2588 0.850586 15.8589L1.93652 16.9448C2.53613 17.5444 3.50879 17.5444 4.1084 16.9448L8.99463 12.0586L13.8809 16.9448C14.4805 17.5444 15.4531 17.5444 16.0527 16.9448L17.1387 15.8589C17.7383 15.2593 17.7383 14.2871 17.1387 13.687L12.2524 8.80078Z" fill="black"/>
</svg>
