<svg width="22" height="25" viewBox="0 0 22 25" fill="none" xmlns="http://www.w3.org/2000/svg">
<path d="M15.625 21.875V23.8281C15.625 24.4753 15.1003 25 14.4531 25H1.17188C0.524658 25 0 24.4753 0 23.8281V5.85938C0 5.21216 0.524658 4.6875 1.17188 4.6875H4.6875V19.1406C4.6875 20.6484 5.91411 21.875 7.42188 21.875H15.625ZM15.625 5.07812V0H7.42188C6.77466 0 6.25 0.524658 6.25 1.17188V19.1406C6.25 19.7878 6.77466 20.3125 7.42188 20.3125H20.7031C21.3503 20.3125 21.875 19.7878 21.875 19.1406V6.25H16.7969C16.1523 6.25 15.625 5.72266 15.625 5.07812ZM21.5318 3.56304L18.312 0.343213C18.0922 0.123458 17.7941 1.62498e-06 17.4833 0L17.1875 0V4.6875H21.875V4.39165C21.875 4.08086 21.7515 3.7828 21.5318 3.56304V3.56304Z" fill="white"/>
</svg>
