<svg width="35" height="25" viewBox="0 0 35 25" fill="none" xmlns="http://www.w3.org/2000/svg">
<path d="M10.5 12.5C13.8852 12.5 16.625 9.70424 16.625 6.25C16.625 2.79576 13.8852 0 10.5 0C7.11484 0 4.375 2.79576 4.375 6.25C4.375 9.70424 7.11484 12.5 10.5 12.5ZM14.7 14.2857H14.2461C13.1086 14.8438 11.8453 15.1786 10.5 15.1786C9.15469 15.1786 7.89687 14.8438 6.75391 14.2857H6.3C2.82187 14.2857 0 17.1652 0 20.7143V22.3214C0 23.8002 1.17578 25 2.625 25H18.375C19.8242 25 21 23.8002 21 22.3214V20.7143C21 17.1652 18.1781 14.2857 14.7 14.2857ZM26.25 12.5C29.1484 12.5 31.5 10.1004 31.5 7.14286C31.5 4.18527 29.1484 1.78571 26.25 1.78571C23.3516 1.78571 21 4.18527 21 7.14286C21 10.1004 23.3516 12.5 26.25 12.5ZM28.875 14.2857H28.6672C27.907 14.5536 27.1031 14.7321 26.25 14.7321C25.3969 14.7321 24.593 14.5536 23.8328 14.2857H23.625C22.5094 14.2857 21.4812 14.615 20.5789 15.1451C21.9133 16.6127 22.75 18.5603 22.75 20.7143V22.8571C22.75 22.9799 22.7227 23.0971 22.7172 23.2143H32.375C33.8242 23.2143 35 22.0145 35 20.5357C35 17.0815 32.2602 14.2857 28.875 14.2857Z" fill="white"/>
</svg>
