<svg width="18" height="26" viewBox="0 0 18 26" fill="none" xmlns="http://www.w3.org/2000/svg">
<path d="M9.17634 0.19437C5.27992 0.106431 2.72016 1.64589 0.674528 4.44825C0.303442 4.95661 0.398272 5.66723 0.891078 6.05873L2.96085 7.70296C3.45855 8.09833 4.18105 8.02482 4.58869 7.53711C5.84605 6.03282 6.773 5.17129 8.68301 5.2144C10.1848 5.24829 12.0205 6.25672 11.9876 7.71299C11.9628 8.81388 11.0412 9.35875 9.53964 10.1566C7.78856 11.0871 5.47304 12.242 5.40493 15.2602L5.39414 15.738C5.37954 16.385 5.89223 16.9214 6.53928 16.936L10.077 17.0158C10.7241 17.0305 11.2604 16.5178 11.275 15.8707L11.2814 15.5889C11.3286 13.4967 17.4456 13.5475 17.5734 7.88579C17.6697 3.62204 13.3199 0.287885 9.17634 0.19437ZM8.27571 18.414C6.41114 18.3719 4.85996 19.8546 4.81788 21.7192C4.7758 23.5837 6.25851 25.1349 8.12307 25.177C9.98764 25.219 11.5388 23.7363 11.5809 21.8718C11.623 20.0072 10.1403 18.4561 8.27571 18.414Z" fill="white"/>
</svg>
