<svg width="254" height="167" viewBox="0 0 254 167" fill="none" xmlns="http://www.w3.org/2000/svg">
<rect x="88.5" y="88.5" width="77" height="77" rx="13.5" stroke="black" stroke-width="3"/>
<path d="M112 95.5H142C149.456 95.5 155.5 101.544 155.5 109V139C155.5 146.456 149.456 152.5 142 152.5H112C104.544 152.5 98.5 146.456 98.5 139V109C98.5 101.544 104.544 95.5 112 95.5Z" stroke="black" stroke-width="3"/>
<path d="M124.432 105.818V118.505L129.164 113.755L131.241 115.815L122.932 124.107L114.64 115.815L116.682 113.755L121.431 118.505V105.818H124.432Z" fill="black"/>
<rect x="88.5" y="1.5" width="77" height="77" rx="13.5" stroke="black" stroke-width="3"/>
<path d="M112 8.5H142C149.456 8.5 155.5 14.5442 155.5 22V52C155.5 59.4558 149.456 65.5 142 65.5H112C104.544 65.5 98.5 59.4558 98.5 52V22C98.5 14.5442 104.544 8.5 112 8.5Z" stroke="black" stroke-width="3"/>
<path d="M121.431 37V24.3136L116.7 29.0632L114.622 27.0036L122.932 18.7116L131.224 27.0036L129.182 29.0632L124.432 24.3136V37H121.431Z" fill="black"/>
<rect x="1.5" y="88.5" width="77" height="77" rx="13.5" stroke="black" stroke-width="3"/>
<path d="M25 95.5H55C62.4558 95.5 68.5 101.544 68.5 109V139C68.5 146.456 62.4558 152.5 55 152.5H25C17.5442 152.5 11.5 146.456 11.5 139V109C11.5 101.544 17.5442 95.5 25 95.5Z" stroke="black" stroke-width="3"/>
<path d="M35.4169 124.994L26.468 116.045L35.4169 107.097L37.4766 109.138L32.07 114.545H44.7386V117.546H32.07L37.4766 122.944L35.4169 124.994Z" fill="black"/>
<rect x="175.5" y="88.5" width="77" height="77" rx="13.5" stroke="black" stroke-width="3"/>
<path d="M199 95.5H229C236.456 95.5 242.5 101.544 242.5 109V139C242.5 146.456 236.456 152.5 229 152.5H199C191.544 152.5 185.5 146.456 185.5 139V109C185.5 101.544 191.544 95.5 199 95.5Z" stroke="black" stroke-width="3"/>
<path d="M210.447 124.994L208.387 122.952L213.794 117.546H201.125V114.545H213.794L208.387 109.147L210.447 107.097L219.396 116.045L210.447 124.994Z" fill="black"/>
</svg>
