<svg width="140" height="80" viewBox="0 0 140 80" fill="none" xmlns="http://www.w3.org/2000/svg">
<rect x="1.5" y="1.5" width="137" height="77" rx="13.5" stroke="black" stroke-width="3"/>
<path d="M25 8.5H115C122.456 8.5 128.5 14.5442 128.5 22V52C128.5 59.4558 122.456 65.5 115 65.5H25C17.5442 65.5 11.5 59.4558 11.5 52V22C11.5 14.5442 17.5442 8.5 25 8.5Z" stroke="black" stroke-width="3"/>
<path d="M36.8551 27.2521L33.3928 27.4652C33.3336 27.1693 33.2063 26.9029 33.011 26.6662C32.8157 26.4235 32.5582 26.2312 32.2386 26.0891C31.925 25.9412 31.5491 25.8672 31.1112 25.8672C30.5252 25.8672 30.031 25.9915 29.6286 26.2401C29.2261 26.4827 29.0249 26.8082 29.0249 27.2166C29.0249 27.5421 29.1551 27.8174 29.4155 28.0423C29.6759 28.2672 30.1228 28.4477 30.756 28.5838L33.2241 29.081C34.5498 29.3532 35.5382 29.7912 36.1893 30.3949C36.8403 30.9986 37.1658 31.7917 37.1658 32.7741C37.1658 33.6679 36.9025 34.4521 36.3757 35.1268C35.8549 35.8015 35.1387 36.3282 34.2273 36.707C33.3217 37.0799 32.2771 37.2663 31.0934 37.2663C29.2882 37.2663 27.85 36.8905 26.7788 36.1388C25.7134 35.3813 25.089 34.3514 24.9055 33.0494L28.6254 32.854C28.7378 33.4045 29.0101 33.8247 29.4421 34.1147C29.8742 34.3988 30.4276 34.5408 31.1023 34.5408C31.7652 34.5408 32.2978 34.4136 32.7003 34.1591C33.1087 33.8987 33.3158 33.5643 33.3217 33.1559C33.3158 32.8126 33.1708 32.5315 32.8867 32.3125C32.6026 32.0876 32.1647 31.916 31.5728 31.7976L29.2113 31.3271C27.8796 31.0607 26.8883 30.5991 26.2372 29.9421C25.5921 29.2852 25.2695 28.4477 25.2695 27.4297C25.2695 26.5537 25.5063 25.7991 25.9798 25.1658C26.4592 24.5326 27.1309 24.0443 27.995 23.701C28.8651 23.3577 29.883 23.1861 31.049 23.1861C32.7713 23.1861 34.1267 23.5501 35.1151 24.2781C36.1094 25.006 36.6894 25.9974 36.8551 27.2521ZM43.3293 29.1165V37H39.5473V18.8182H43.2227V25.7695H43.3825C43.6903 24.9646 44.1875 24.3343 44.874 23.8786C45.5606 23.4169 46.4217 23.1861 47.4575 23.1861C48.4044 23.1861 49.2301 23.3932 49.9344 23.8075C50.6446 24.2159 51.195 24.8048 51.5857 25.5742C51.9822 26.3377 52.1775 27.2521 52.1716 28.3175V37H48.3896V28.9922C48.3956 28.1518 48.1825 27.4978 47.7504 27.0302C47.3243 26.5626 46.7265 26.3288 45.9571 26.3288C45.4422 26.3288 44.9865 26.4383 44.5899 26.6573C44.1993 26.8763 43.8915 27.1959 43.6666 27.6161C43.4477 28.0304 43.3352 28.5305 43.3293 29.1165ZM55.1479 37V23.3636H58.9299V37H55.1479ZM57.0478 21.6058C56.4855 21.6058 56.0031 21.4194 55.6007 21.0465C55.2041 20.6677 55.0059 20.215 55.0059 19.6882C55.0059 19.1674 55.2041 18.7205 55.6007 18.3477C56.0031 17.9689 56.4855 17.7795 57.0478 17.7795C57.61 17.7795 58.0894 17.9689 58.486 18.3477C58.8884 18.7205 59.0897 19.1674 59.0897 19.6882C59.0897 20.215 58.8884 20.6677 58.486 21.0465C58.0894 21.4194 57.61 21.6058 57.0478 21.6058ZM69.2925 23.3636V26.2045H60.8763V23.3636H69.2925ZM62.8028 37V22.3782C62.8028 21.3898 62.9952 20.5701 63.3799 19.919C63.7705 19.268 64.3032 18.7797 64.9779 18.4542C65.6526 18.1287 66.4191 17.9659 67.2773 17.9659C67.8573 17.9659 68.387 18.0103 68.8664 18.0991C69.3517 18.1879 69.7127 18.2678 69.9495 18.3388L69.2748 21.1797C69.1268 21.1323 68.9433 21.0879 68.7243 21.0465C68.5113 21.0051 68.2923 20.9844 68.0674 20.9844C67.511 20.9844 67.1234 21.1146 66.9044 21.375C66.6854 21.6295 66.5759 21.9876 66.5759 22.4492V37H62.8028ZM78.8562 23.3636V26.2045H70.6442V23.3636H78.8562ZM72.5085 20.0966H76.2905V32.8097C76.2905 33.1589 76.3438 33.4311 76.4503 33.6264C76.5568 33.8158 76.7048 33.949 76.8942 34.0259C77.0895 34.1029 77.3144 34.1413 77.5689 34.1413C77.7464 34.1413 77.924 34.1265 78.1016 34.0969C78.2791 34.0614 78.4152 34.0348 78.5099 34.017L79.1048 36.8313C78.9154 36.8905 78.649 36.9586 78.3058 37.0355C77.9625 37.1184 77.5452 37.1687 77.054 37.1864C76.1425 37.2219 75.3435 37.1006 74.657 36.8224C73.9763 36.5443 73.4466 36.1122 73.0678 35.5263C72.689 34.9403 72.5026 34.2005 72.5085 33.3068V20.0966Z" fill="black"/>
</svg>
