<svg width="80" height="80" viewBox="0 0 80 80" fill="none" xmlns="http://www.w3.org/2000/svg">
<rect x="1.5" y="1.5" width="77" height="77" rx="13.5" stroke="black" stroke-width="3"/>
<path d="M25 8.5H55C62.4558 8.5 68.5 14.5442 68.5 22V52C68.5 59.4558 62.4558 65.5 55 65.5H25C17.5442 65.5 11.5 59.4558 11.5 52V22C11.5 14.5442 17.5442 8.5 25 8.5Z" stroke="black" stroke-width="3"/>
<path d="M25.5803 37V18.8182H32.7536C34.1267 18.8182 35.2985 19.0638 36.2692 19.555C37.2457 20.0404 37.9885 20.7299 38.4975 21.6236C39.0124 22.5114 39.2699 23.556 39.2699 24.7575C39.2699 25.9648 39.0095 27.0036 38.4886 27.8736C37.9678 28.7377 37.2132 29.4006 36.2248 29.8622C35.2423 30.3239 34.0527 30.5547 32.6559 30.5547H27.853V27.4652H32.0344C32.7683 27.4652 33.378 27.3646 33.8633 27.1634C34.3486 26.9621 34.7096 26.6603 34.9464 26.2578C35.189 25.8554 35.3104 25.3552 35.3104 24.7575C35.3104 24.1538 35.189 23.6448 34.9464 23.2305C34.7096 22.8162 34.3456 22.5025 33.8544 22.2894C33.3691 22.0704 32.7565 21.9609 32.0167 21.9609H29.4244V37H25.5803ZM35.3991 28.7259L39.918 37H35.6744L31.2532 28.7259H35.3991Z" fill="black"/>
</svg>
