<svg width="200" height="80" viewBox="0 0 200 80" fill="none" xmlns="http://www.w3.org/2000/svg">
<rect x="1.5" y="1.5" width="197" height="77" rx="13.5" stroke="black" stroke-width="3"/>
<path d="M25 8.5H175C182.456 8.5 188.5 14.5442 188.5 22V52C188.5 59.4558 182.456 65.5 175 65.5H25C17.5442 65.5 11.5 59.4558 11.5 52V22C11.5 14.5442 17.5442 8.5 25 8.5Z" stroke="black" stroke-width="3"/>
<path d="M74.8551 34.2521L71.3928 34.4652C71.3336 34.1693 71.2063 33.9029 71.011 33.6662C70.8157 33.4235 70.5582 33.2312 70.2386 33.0891C69.925 32.9412 69.5491 32.8672 69.1112 32.8672C68.5252 32.8672 68.031 32.9915 67.6286 33.2401C67.2261 33.4827 67.0249 33.8082 67.0249 34.2166C67.0249 34.5421 67.1551 34.8174 67.4155 35.0423C67.6759 35.2672 68.1228 35.4477 68.756 35.5838L71.2241 36.081C72.5498 36.3532 73.5382 36.7912 74.1893 37.3949C74.8403 37.9986 75.1658 38.7917 75.1658 39.7741C75.1658 40.6679 74.9025 41.4521 74.3757 42.1268C73.8549 42.8015 73.1387 43.3282 72.2273 43.707C71.3217 44.0799 70.2771 44.2663 69.0934 44.2663C67.2882 44.2663 65.85 43.8905 64.7788 43.1388C63.7134 42.3813 63.089 41.3514 62.9055 40.0494L66.6254 39.854C66.7378 40.4045 67.0101 40.8247 67.4421 41.1147C67.8742 41.3988 68.4276 41.5408 69.1023 41.5408C69.7652 41.5408 70.2978 41.4136 70.7003 41.1591C71.1087 40.8987 71.3158 40.5643 71.3217 40.1559C71.3158 39.8126 71.1708 39.5315 70.8867 39.3125C70.6026 39.0876 70.1647 38.916 69.5728 38.7976L67.2113 38.3271C65.8796 38.0607 64.8883 37.5991 64.2372 36.9421C63.5921 36.2852 63.2695 35.4477 63.2695 34.4297C63.2695 33.5537 63.5063 32.7991 63.9798 32.1658C64.4592 31.5326 65.1309 31.0443 65.995 30.701C66.8651 30.3577 67.883 30.1861 69.049 30.1861C70.7713 30.1861 72.1267 30.5501 73.1151 31.2781C74.1094 32.006 74.6894 32.9974 74.8551 34.2521ZM77.5473 49.1136V30.3636H81.276V32.6541H81.4447C81.6104 32.2872 81.8501 31.9143 82.1638 31.5355C82.4834 31.1508 82.8977 30.8312 83.4067 30.5767C83.9216 30.3163 84.5608 30.1861 85.3243 30.1861C86.3186 30.1861 87.236 30.4465 88.0764 30.9673C88.9169 31.4822 89.5886 32.2605 90.0917 33.3022C90.5948 34.3379 90.8463 35.6371 90.8463 37.1996C90.8463 38.7206 90.6007 40.005 90.1095 41.0526C89.6241 42.0942 88.9613 42.8844 88.1208 43.4229C87.2863 43.9556 86.3512 44.2219 85.3154 44.2219C84.5815 44.2219 83.9571 44.1006 83.4422 43.858C82.9332 43.6153 82.516 43.3105 82.1904 42.9435C81.8649 42.5707 81.6163 42.1948 81.4447 41.8161H81.3293V49.1136H77.5473ZM81.2494 37.1818C81.2494 37.9927 81.3618 38.6999 81.5867 39.3036C81.8116 39.9073 82.1372 40.3778 82.5633 40.7152C82.9894 41.0466 83.5073 41.2124 84.1169 41.2124C84.7325 41.2124 85.2533 41.0437 85.6794 40.7063C86.1056 40.363 86.4281 39.8896 86.6471 39.2859C86.872 38.6763 86.9845 37.9749 86.9845 37.1818C86.9845 36.3946 86.875 35.7022 86.656 35.1044C86.437 34.5066 86.1144 34.0391 85.6883 33.7017C85.2622 33.3643 84.7384 33.1957 84.1169 33.1957C83.5014 33.1957 82.9806 33.3584 82.5544 33.6839C82.1342 34.0095 81.8116 34.4711 81.5867 35.0689C81.3618 35.6667 81.2494 36.371 81.2494 37.1818ZM97.2561 44.2575C96.3861 44.2575 95.6108 44.1065 94.9301 43.8047C94.2495 43.4969 93.7109 43.0442 93.3144 42.4464C92.9237 41.8427 92.7284 41.091 92.7284 40.1914C92.7284 39.4338 92.8675 38.7976 93.1457 38.2827C93.4239 37.7678 93.8026 37.3535 94.282 37.0398C94.7615 36.7261 95.306 36.4893 95.9156 36.3295C96.5311 36.1697 97.1762 36.0573 97.8509 35.9922C98.644 35.9093 99.2832 35.8324 99.7686 35.7614C100.254 35.6844 100.606 35.572 100.825 35.424C101.044 35.276 101.153 35.0571 101.153 34.767V34.7138C101.153 34.1515 100.976 33.7165 100.621 33.4087C100.272 33.101 99.7745 32.9471 99.1294 32.9471C98.4487 32.9471 97.9072 33.098 97.5047 33.3999C97.1022 33.6958 96.8359 34.0687 96.7057 34.5185L93.2078 34.2344C93.3854 33.4058 93.7346 32.6896 94.2554 32.0859C94.7762 31.4763 95.448 31.0088 96.2707 30.6832C97.0993 30.3518 98.0581 30.1861 99.1471 30.1861C99.9047 30.1861 100.63 30.2749 101.322 30.4524C102.021 30.63 102.639 30.9052 103.178 31.2781C103.722 31.6509 104.151 32.1303 104.465 32.7163C104.779 33.2963 104.935 33.9917 104.935 34.8026V44H101.349V42.109H101.242C101.023 42.5352 100.73 42.911 100.363 43.2365C99.9964 43.5561 99.5555 43.8076 99.0406 43.9911C98.5257 44.1687 97.9308 44.2575 97.2561 44.2575ZM98.3392 41.6474C98.8956 41.6474 99.3868 41.5379 99.8129 41.3189C100.239 41.094 100.573 40.7921 100.816 40.4134C101.059 40.0346 101.18 39.6055 101.18 39.1261V37.679C101.062 37.7559 100.899 37.8269 100.692 37.892C100.491 37.9512 100.263 38.0075 100.008 38.0607C99.7538 38.1081 99.4993 38.1525 99.2448 38.1939C98.9903 38.2294 98.7594 38.262 98.5523 38.2915C98.1084 38.3567 97.7207 38.4602 97.3893 38.6023C97.0579 38.7443 96.8004 38.9367 96.6169 39.1793C96.4334 39.4161 96.3417 39.712 96.3417 40.0671C96.3417 40.582 96.5281 40.9756 96.901 41.2479C97.2798 41.5142 97.7592 41.6474 98.3392 41.6474ZM114.031 44.2663C112.634 44.2663 111.433 43.9704 110.426 43.3786C109.426 42.7808 108.657 41.9522 108.118 40.8928C107.585 39.8333 107.319 38.6141 107.319 37.2351C107.319 35.8383 107.588 34.6132 108.127 33.5597C108.672 32.5002 109.444 31.6746 110.444 31.0827C111.444 30.485 112.634 30.1861 114.013 30.1861C115.203 30.1861 116.244 30.4021 117.138 30.8342C118.032 31.2662 118.739 31.8729 119.26 32.6541C119.781 33.4354 120.068 34.3527 120.121 35.4062H116.552C116.451 34.7256 116.185 34.1781 115.753 33.7638C115.327 33.3436 114.768 33.1335 114.075 33.1335C113.489 33.1335 112.977 33.2933 112.539 33.6129C112.107 33.9266 111.77 34.3853 111.527 34.989C111.285 35.5927 111.163 36.3236 111.163 37.1818C111.163 38.0518 111.282 38.7917 111.518 39.4013C111.761 40.0109 112.101 40.4755 112.539 40.7951C112.977 41.1147 113.489 41.2745 114.075 41.2745C114.507 41.2745 114.895 41.1857 115.238 41.0082C115.587 40.8306 115.874 40.5732 116.099 40.2358C116.33 39.8925 116.481 39.4812 116.552 39.0018H120.121C120.062 40.0434 119.778 40.9608 119.269 41.7539C118.766 42.5411 118.07 43.1566 117.182 43.6005C116.295 44.0444 115.244 44.2663 114.031 44.2663ZM128.757 44.2663C127.354 44.2663 126.147 43.9822 125.135 43.4141C124.129 42.84 123.353 42.0291 122.809 40.9815C122.264 39.928 121.992 38.6822 121.992 37.244C121.992 35.8413 122.264 34.6102 122.809 33.5508C123.353 32.4914 124.12 31.6657 125.108 31.0739C126.102 30.482 127.268 30.1861 128.606 30.1861C129.506 30.1861 130.343 30.3311 131.118 30.6211C131.9 30.9052 132.58 31.3343 133.16 31.9084C133.746 32.4825 134.202 33.2045 134.528 34.0746C134.853 34.9387 135.016 35.9508 135.016 37.1108V38.1495H123.501V35.8058H131.456C131.456 35.2612 131.337 34.7789 131.101 34.3587C130.864 33.9384 130.535 33.61 130.115 33.3732C129.701 33.1306 129.219 33.0092 128.668 33.0092C128.094 33.0092 127.585 33.1424 127.141 33.4087C126.703 33.6692 126.36 34.0213 126.111 34.4652C125.863 34.9032 125.735 35.3915 125.73 35.93V38.1584C125.73 38.8331 125.854 39.4161 126.102 39.9073C126.357 40.3986 126.715 40.7773 127.177 41.0437C127.638 41.31 128.186 41.4432 128.819 41.4432C129.239 41.4432 129.624 41.384 129.973 41.2656C130.322 41.1473 130.621 40.9697 130.87 40.733C131.118 40.4962 131.308 40.2062 131.438 39.8629L134.936 40.0938C134.758 40.9342 134.394 41.6681 133.844 42.2955C133.299 42.9169 132.595 43.4022 131.731 43.7514C130.873 44.0947 129.881 44.2663 128.757 44.2663Z" fill="black"/>
</svg>
