<svg width="18" height="18" viewBox="0 0 18 18" fill="none" xmlns="http://www.w3.org/2000/svg">
<path d="M9.01996 0C3.93823 0 0 3.71414 0 8.73081C0 11.3547 1.07819 13.6223 2.83319 15.1886C3.13621 15.4612 3.07379 15.6191 3.12532 17.3019C3.12938 17.4198 3.16222 17.5349 3.22097 17.6372C3.27972 17.7395 3.3626 17.8258 3.46238 17.8887C3.56216 17.9516 3.67581 17.9891 3.79341 17.998C3.91102 18.0068 4.02901 17.9868 4.1371 17.9396C6.05722 17.094 6.08189 17.0272 6.40742 17.1158C11.9704 18.6469 18 15.0867 18 8.73081C18 3.71414 14.1021 0 9.01996 0ZM14.4359 6.71877L11.7867 10.9131C11.6867 11.0708 11.5552 11.2061 11.4004 11.3106C11.2456 11.4151 11.0709 11.4866 10.8872 11.5204C10.7035 11.5542 10.5148 11.5497 10.333 11.5073C10.1511 11.4648 9.97999 11.3852 9.83032 11.2734L7.72258 9.69582C7.62836 9.62514 7.51375 9.58694 7.39597 9.58694C7.27819 9.58694 7.16358 9.62514 7.06935 9.69582L4.22528 11.853C3.84569 12.1408 3.34851 11.6861 3.60435 11.2843L6.25355 7.09004C6.35355 6.93228 6.48507 6.79689 6.63986 6.69235C6.79465 6.58781 6.96936 6.51638 7.15305 6.48254C7.33674 6.44871 7.52544 6.45319 7.70731 6.49572C7.88918 6.53824 8.06031 6.61789 8.20996 6.72966L10.317 8.30692C10.4112 8.37759 10.5258 8.41579 10.6436 8.41579C10.7614 8.41579 10.876 8.37759 10.9702 8.30692L13.8157 6.15189C14.1946 5.86228 14.6918 6.31665 14.4359 6.71877Z" fill="black" fill-opacity="0.8"/>
</svg>
