<svg width="18" height="18" viewBox="0 0 18 18" fill="none" xmlns="http://www.w3.org/2000/svg">
<path d="M17.8262 16.105L13.3948 11.824C13.7458 10.976 13.95 10.0187 13.95 8.99992V7.31243C13.95 7.00165 13.7486 6.74994 13.5 6.74994H13.05C12.8013 6.74994 12.6 7.00165 12.6 7.31243V8.99992C12.6 9.62992 12.4886 10.2234 12.2985 10.7648L11.5518 10.0434C11.6389 9.71289 11.7003 9.36766 11.7003 9.00028H10.472L9.30766 7.87528H11.7V6.75029H9.30007C9.13441 6.75029 8.99997 6.62443 8.99997 6.46904V5.90654C8.99997 5.75115 9.13441 5.62529 9.30007 5.62529H11.7V4.5003H9.30007C9.13441 4.5003 8.99997 4.37444 8.99997 4.21905V3.65655C8.99997 3.50116 9.13441 3.3753 9.30007 3.3753H11.7C11.7 1.51133 10.4912 0.00032039 8.99997 0.00032039C7.50879 0.00032039 6.29997 1.51133 6.29997 3.3753V4.96998L1.27882 0.118445C1.08251 -0.0721011 0.799569 -0.028156 0.647131 0.217233L0.0947563 1.10563C-0.0576812 1.35067 -0.0225249 1.70398 0.173788 1.89488L16.7214 17.8814C16.9177 18.0723 17.2004 18.028 17.3531 17.7826L17.9055 16.8942C18.0576 16.6492 18.0225 16.2959 17.8262 16.105ZM11.25 16.3124H9.67497V15.1248C10.0043 15.0679 10.3247 14.9743 10.6301 14.8408L9.2126 13.4711C9.02388 13.4851 8.83544 13.5017 8.64025 13.4781C7.06947 13.2865 5.86319 11.7685 5.51332 9.89746L4.04997 8.48348V8.7243C4.04997 11.8757 5.84913 14.685 8.32497 15.1118V16.3124H6.74997C6.50135 16.3124 6.29997 16.5641 6.29997 16.8749V17.4374C6.29997 17.7482 6.50135 17.9999 6.74997 17.9999H11.25C11.4986 17.9999 11.7 17.7482 11.7 17.4374V16.8749C11.7 16.5641 11.4986 16.3124 11.25 16.3124Z" fill="black"/>
</svg>
