<svg width="35" height="35" viewBox="0 0 35 35" fill="none" xmlns="http://www.w3.org/2000/svg">
<path d="M17.5 0C7.83266 0 0 7.83266 0 17.5C0 27.1673 7.83266 35 17.5 35C27.1673 35 35 27.1673 35 17.5C35 7.83266 27.1673 0 17.5 0ZM17.5 6.77419C20.9294 6.77419 23.7097 9.55444 23.7097 12.9839C23.7097 16.4133 20.9294 19.1935 17.5 19.1935C14.0706 19.1935 11.2903 16.4133 11.2903 12.9839C11.2903 9.55444 14.0706 6.77419 17.5 6.77419ZM17.5 31.0484C13.3579 31.0484 9.64617 29.1714 7.1623 26.2359C8.48891 23.7379 11.0857 22.0161 14.1129 22.0161C14.2823 22.0161 14.4516 22.0444 14.6139 22.0938C15.5312 22.3901 16.4909 22.5806 17.5 22.5806C18.5091 22.5806 19.4758 22.3901 20.3861 22.0938C20.5484 22.0444 20.7177 22.0161 20.8871 22.0161C23.9143 22.0161 26.5111 23.7379 27.8377 26.2359C25.3538 29.1714 21.6421 31.0484 17.5 31.0484Z" fill="white"/>
</svg>
