<svg width="48" height="48" viewBox="0 0 48 48" fill="none" xmlns="http://www.w3.org/2000/svg">
<path d="M46.2563 2.30722L36.5065 0.0572626C35.4471 -0.186482 34.3597 0.366631 33.9284 1.36036L29.4285 11.8601C29.0348 12.7789 29.2973 13.857 30.0754 14.4851L35.7565 19.135C32.3816 26.3255 26.4848 32.3066 19.1443 35.7471L14.4944 30.066C13.8569 29.2879 12.7882 29.0254 11.8695 29.4191L1.3697 33.919C0.366594 34.3597 -0.18652 35.4471 0.0572253 36.5065L2.30718 46.2563C2.54155 47.2688 3.44153 48 4.50089 48C28.5098 48 48 28.5473 48 4.50092C48 3.45094 47.2781 2.54159 46.2563 2.30722Z" fill="black" fill-opacity="0.3"/>
</svg>
