<svg width="18" height="18" viewBox="0 0 18 18" fill="none" xmlns="http://www.w3.org/2000/svg">
<path d="M7.54226 13.4087L6.14727 11.2783C5.95602 10.9865 5.63539 10.888 5.35977 11.0357L2.20979 12.7232C1.90885 12.8849 1.74573 13.2892 1.81885 13.6899L2.49385 17.3461C2.56416 17.7258 2.83416 18 3.15197 18C5.98414 18 8.59975 16.861 10.7372 14.945L8.48725 12.7724C8.18069 13.0009 7.86569 13.2189 7.54226 13.4087V13.4087ZM17.8247 16.1051L13.3613 11.7951C15.1275 9.01425 16.1991 5.51628 16.1991 1.68784C16.1991 1.2941 15.9825 0.953094 15.676 0.865206L12.751 0.0214735C12.4332 -0.0699308 12.1069 0.137487 11.9775 0.510135L10.6276 4.44755C10.5094 4.79208 10.5882 5.19636 10.8216 5.43191L12.526 7.17562C12.1829 8.09318 11.7413 8.94394 11.2322 9.73494L1.27885 0.119909C1.08198 -0.0699309 0.80073 -0.0277443 0.646043 0.218344L0.0947963 1.10426C-0.057078 1.35035 -0.0233281 1.70191 0.173546 1.89175L16.7222 17.877C16.9191 18.0668 17.2003 18.0246 17.355 17.7785L17.9063 16.8891C18.0581 16.65 18.0216 16.295 17.8247 16.1051V16.1051Z" fill="black"/>
</svg>
