<svg width="35" height="35" viewBox="0 0 35 35" fill="none" xmlns="http://www.w3.org/2000/svg">
<path d="M34.553 21.7056L31.4128 19.9697C31.7298 18.3327 31.7298 16.6532 31.4128 15.0161L34.553 13.2803C34.9141 13.0827 35.0763 12.6734 34.9584 12.2924C34.1402 9.78027 32.747 7.5081 30.9263 5.61698C30.6462 5.32767 30.1892 5.2571 29.8354 5.45468L26.6953 7.19056C25.3758 6.10387 23.8573 5.26416 22.2136 4.71376V1.24905C22.2136 0.853893 21.9261 0.508129 21.5207 0.423452C18.8154 -0.155175 16.0439 -0.12695 13.4713 0.423452C13.0659 0.508129 12.7784 0.853893 12.7784 1.24905V4.72081C11.142 5.27827 9.62355 6.11799 8.29674 7.19762L5.16398 5.46174C4.80279 5.26416 4.35314 5.32767 4.07304 5.62404C2.25235 7.5081 0.859196 9.78027 0.0409927 12.2994C-0.0843177 12.6805 0.0852199 13.0897 0.446409 13.2873L3.58654 15.0232C3.26958 16.6603 3.26958 18.3397 3.58654 19.9768L0.446409 21.7127C0.0852199 21.9103 -0.0769465 22.3195 0.0409927 22.7006C0.859196 25.2127 2.25235 27.4848 4.07304 29.376C4.35314 29.6653 4.81016 29.7358 5.16398 29.5383L8.30411 27.8024C9.62355 28.8891 11.142 29.7288 12.7858 30.2792V33.7509C12.7858 34.1461 13.0733 34.4919 13.4787 34.5765C16.1839 35.1552 18.9555 35.1269 21.528 34.5765C21.9335 34.4919 22.2209 34.1461 22.2209 33.7509V30.2792C23.8573 29.7217 25.3758 28.882 26.7026 27.8024L29.8428 29.5383C30.2039 29.7358 30.6536 29.6723 30.9337 29.376C32.7544 27.4919 34.1475 25.2197 34.9657 22.7006C35.0763 22.3125 34.9141 21.9032 34.553 21.7056ZM17.496 23.1381C14.2453 23.1381 11.599 20.6048 11.599 17.4929C11.599 14.3811 14.2453 11.8478 17.496 11.8478C20.7467 11.8478 23.393 14.3811 23.393 17.4929C23.393 20.6048 20.7467 23.1381 17.496 23.1381Z" fill="white"/>
</svg>
