<svg width="18" height="16" viewBox="0 0 18 16" fill="none" xmlns="http://www.w3.org/2000/svg">
<path d="M17.8247 14.3156L10.9566 8.41562C12.1997 7.64687 13.0491 6.19063 13.0491 4.5C13.0491 2.01562 11.2351 0 8.99912 0C7.11195 0 5.53977 1.44063 5.08977 3.38125L1.27885 0.10625C1.08198 -0.0625 0.80073 -0.025 0.646043 0.19375L0.0947963 0.98125C-0.0570779 1.2 -0.0233281 1.5125 0.173546 1.68125L16.7222 15.8906C16.9191 16.0594 17.2003 16.0219 17.355 15.8031L17.9063 15.0125C18.0581 14.8 18.0216 14.4844 17.8247 14.3156ZM5.57914 10C3.49228 10 1.79916 11.8813 1.79916 14.2V14.5C1.79916 15.3281 2.40385 16 3.14916 16H13.8985L6.91226 10H5.57914Z" fill="black"/>
</svg>
