<svg width="16" height="14" viewBox="0 0 16 14" fill="none" xmlns="http://www.w3.org/2000/svg">
<path d="M2.4 6C3.2825 6 4 5.10312 4 4C4 2.89688 3.2825 2 2.4 2C1.5175 2 0.8 2.89688 0.8 4C0.8 5.10312 1.5175 6 2.4 6ZM13.6 6C14.4825 6 15.2 5.10312 15.2 4C15.2 2.89688 14.4825 2 13.6 2C12.7175 2 12 2.89688 12 4C12 5.10312 12.7175 6 13.6 6ZM14.4 7H12.8C12.36 7 11.9625 7.22188 11.6725 7.58125C12.68 8.27188 13.395 9.51875 13.55 11H15.2C15.6425 11 16 10.5531 16 10V9C16 7.89688 15.2825 7 14.4 7ZM8 7C9.5475 7 10.8 5.43438 10.8 3.5C10.8 1.56562 9.5475 0 8 0C6.4525 0 5.2 1.56562 5.2 3.5C5.2 5.43438 6.4525 7 8 7ZM9.92 8H9.7125C9.1925 8.3125 8.615 8.5 8 8.5C7.385 8.5 6.81 8.3125 6.2875 8H6.08C4.49 8 3.2 9.6125 3.2 11.6V12.5C3.2 13.3281 3.7375 14 4.4 14H11.6C12.2625 14 12.8 13.3281 12.8 12.5V11.6C12.8 9.6125 11.51 8 9.92 8ZM4.3275 7.58125C4.0375 7.22188 3.64 7 3.2 7H1.6C0.7175 7 0 7.89688 0 9V10C0 10.5531 0.3575 11 0.8 11H2.4475C2.605 9.51875 3.32 8.27188 4.3275 7.58125Z" fill="white"/>
</svg>
