<svg width="16" height="16" viewBox="0 0 16 16" fill="none" xmlns="http://www.w3.org/2000/svg">
<path d="M10.397 2.99956C11.7218 2.99956 12.7966 2.32778 12.7966 1.49978C12.7966 0.671777 11.7218 0 10.397 0C9.07222 0 7.9974 0.671777 7.9974 1.49978C7.9974 2.32778 9.07222 2.99956 10.397 2.99956ZM15.1212 7.65825L13.9564 7.28956L13.4715 6.37094C12.7366 4.9774 10.6869 4.00254 8.36234 3.99941C6.56264 3.99629 5.56781 4.31499 3.69813 4.7868C2.61831 5.05863 1.73346 5.57418 1.21354 6.23034L0.878602 6.65527C0.488667 7.14895 0.803614 7.74886 1.58848 7.9957C2.36835 8.24254 3.31819 8.04257 3.71312 7.54889L4.04807 7.12396C4.22304 6.90524 4.51299 6.73339 4.87293 6.64278L6.2127 6.30533L5.45283 8.20192C5.19287 8.85183 5.47283 9.54235 6.1977 10.0392L9.1922 12.0826C9.55214 12.3294 9.80709 12.6263 9.93707 12.9481L10.8519 15.2384C11.0669 15.7727 11.9367 16.1008 12.7916 15.9664C13.6464 15.8321 14.1714 15.2884 13.9564 14.7541L12.8466 11.9732C12.7166 11.6514 12.4616 11.3515 12.1017 11.1077L9.82709 9.55485L10.6869 7.40829L10.9619 7.92384C11.2269 8.42689 11.7968 8.84245 12.5466 9.07992L13.7114 9.44862C14.4913 9.69545 15.4411 9.49548 15.8361 9.00181C16.221 8.51125 15.9061 7.90509 15.1212 7.65825V7.65825ZM3.67813 12.0545C3.51816 12.3076 3.2782 12.5357 2.96825 12.7263L0.468671 14.2917C-0.156224 14.6822 -0.156224 15.3165 0.468671 15.7071C1.09357 16.0976 2.10339 16.0976 2.72829 15.7071L5.69779 13.8511C6.00274 13.6605 6.2427 13.4324 6.40767 13.1793L7.08255 12.1232C4.31802 10.2391 5.14788 10.8172 4.71295 10.4453L3.67813 12.0545V12.0545Z" fill="white"/>
</svg>
